<svg width="258" height="212" viewBox="0 0 258 212" fill="none" xmlns="http://www.w3.org/2000/svg">
<path d="M120.02 139.921C112.396 153.783 104.798 167.66 97.1366 181.501C92.2541 190.321 87.296 199.1 82.3191 207.867C81.5807 209.168 80.5517 210.304 79.6572 211.516C78.4846 210.486 76.9341 209.672 76.2019 208.39C72.024 201.078 68.0738 193.636 63.9854 186.272C53.7909 167.909 43.5358 149.579 33.3629 131.204C29.1326 123.563 25.105 115.81 20.886 108.163C14.7469 97.0348 8.62704 85.8935 2.28216 74.8828C-0.949377 69.2749 -0.284261 66.6566 4.83309 63.4386C13.676 57.8777 22.4907 52.214 30.8752 45.9973C40.2953 39.0128 49.2256 31.3678 58.7162 24.376C40.1741 58.081 47.2211 96.6174 76.7163 120.504C88.2362 129.834 101.531 135.253 116.142 137.619C117.523 137.843 118.731 139.128 120.02 139.921Z" fill="white"/>
<path d="M198.795 23.9496C202.577 26.7902 206.336 29.662 210.144 32.4659C225.04 43.4318 239.86 54.5058 254.939 65.2147C257.813 67.2553 258.351 68.8006 256.795 71.6365C249.365 85.1784 242.008 98.7596 234.561 112.292C221.351 136.299 208.077 160.272 194.868 184.28C190.552 192.123 186.439 200.079 182.07 207.892C179.191 213.04 177.66 213.08 174.874 208.013C168.348 196.143 162.036 184.156 155.563 172.257C151.048 163.957 146.397 155.731 141.832 147.458C140.574 145.18 139.407 142.851 138.071 139.807C139.726 138.467 141.467 137.615 143.299 137.306C154.8 135.363 165.378 131.161 175.19 124.873C200.9 108.397 214.11 78.2321 207.733 48.4183C205.934 40.0095 201.838 32.0923 198.795 23.9496Z" fill="white"/>
<path d="M198.863 23.6001C201.838 32.0923 205.934 40.0095 207.733 48.4183C214.11 78.2321 200.9 108.397 175.19 124.873C165.378 131.161 154.8 135.363 143.299 137.306C141.467 137.615 139.726 138.467 137.954 139.47C132.23 139.753 126.495 139.633 120.39 139.717C118.731 139.128 117.523 137.843 116.142 137.619C101.531 135.253 88.2362 129.834 76.7163 120.504C47.2211 96.6174 40.174 58.081 59.0703 24.3814C64.7321 13.832 73.3738 6.82089 82.7349 0.575317C83.1666 0.819 83.5982 1.06268 84.0299 1.30635C83.3086 6.3614 82.8643 11.4747 81.8149 16.4608C78.4217 32.5835 78.7038 48.9085 78.9785 65.217C79.0515 69.5478 80.263 73.8595 81.0009 78.9265C80.7796 80.3991 80.1112 81.254 80.2984 81.8316C83.0994 90.4736 84.8078 99.7414 89.1128 107.576C106.257 138.778 148.504 140.035 167.265 109.802C172.206 101.841 174.205 92.0335 177.329 82.996C177.69 81.9522 176.603 80.4076 176.187 79.0951C177.151 75.8415 178.838 72.6118 178.946 69.3298C179.297 58.7025 179.642 48.0158 178.899 37.4284C178.183 27.2178 176.1 17.104 174.65 6.94299C174.384 5.07358 174.274 3.18179 174.7 0.924988C184.26 6.9205 192.703 13.8608 198.863 23.6001Z" fill="#7900F1"/>
<path d="M175.833 79.0011C176.603 80.4076 177.69 81.9522 177.329 82.996C174.205 92.0335 172.206 101.841 167.265 109.802C148.504 140.035 106.257 138.778 89.1129 107.576C84.8078 99.7414 83.0994 90.4736 80.2984 81.8316C80.1112 81.254 80.7796 80.3991 81.1712 79.3101C87.7881 75.8122 94.2881 72.686 100.779 69.5404C112.467 63.8755 124.937 64.6189 137.339 65.2406C151.389 65.9449 163.682 71.7879 175.833 79.0011Z" fill="white"/>
</svg>